<?xml version="1.0" encoding="utf-8"?>
<!-- Generator: Adobe Illustrator 16.0.0, SVG Export Plug-In . SVG Version: 6.00 Build 0)  -->
<!DOCTYPE svg PUBLIC "-//W3C//DTD SVG 1.1//EN" "http://www.w3.org/Graphics/SVG/1.1/DTD/svg11.dtd">
<svg version="1.1" id="Layer_1" xmlns="http://www.w3.org/2000/svg" xmlns:xlink="http://www.w3.org/1999/xlink" x="0px" y="0px"
	 width="382.481px" height="271.43px" viewBox="0 0 382.481 271.43" enable-background="new 0 0 382.481 271.43"
	 xml:space="preserve">
<g>
	<path fill="none" stroke="#2366C9" stroke-width="10" stroke-linejoin="round" stroke-miterlimit="10" d="M367.388,237.072
		c0,11.046-8.954,20-20,20h-311c-11.046,0-20-8.954-20-20v-201c0-11.046,8.954-20,20-20h311c11.046,0,20,8.954,20,20V237.072z"/>
</g>
<line fill="none" stroke="#2366C9" stroke-width="10" stroke-linejoin="round" stroke-miterlimit="10" x1="16.388" y1="63.072" x2="367.388" y2="63.072"/>
<circle fill="#2366C9" cx="288.722" cy="39.639" r="8.667"/>
<circle fill="#2366C9" cx="315.722" cy="39.639" r="8.667"/>
<circle fill="#2366C9" cx="341.722" cy="39.639" r="8.667"/>
<text transform="matrix(1 0 0 1 152.665 106.5674)" fill="#2366C9" font-family="'OpenSans-Semibold'" font-size="36">Aisis</text>
<rect x="41.388" y="120.072" fill="none" stroke="#2366C9" stroke-width="10" stroke-linecap="round" stroke-linejoin="round" stroke-miterlimit="10" width="301" height="41"/>
<rect x="41.388" y="185.072" fill="none" stroke="#2366C9" stroke-width="10" stroke-linecap="round" stroke-linejoin="round" stroke-miterlimit="10" width="301" height="41"/>
<text transform="matrix(1 0 0 1 54.665 149.4375)" fill="#2366C9" font-family="'OpenSans-Semibold'" font-size="24">id number</text>
<circle fill="#2366C9" cx="63.722" cy="205.639" r="8.667"/>
<circle fill="#2366C9" cx="90.722" cy="205.639" r="8.667"/>
<circle fill="#2366C9" cx="116.722" cy="205.639" r="8.667"/>
<circle fill="#2366C9" cx="143.722" cy="205.639" r="8.667"/>
<circle fill="#2366C9" cx="170.722" cy="205.639" r="8.667"/>
<circle fill="#2366C9" cx="196.722" cy="205.639" r="8.667"/>
<circle fill="#2366C9" cx="226.722" cy="205.639" r="8.667"/>
<circle fill="#2366C9" cx="253.722" cy="205.639" r="8.667"/>
</svg>
