<?xml version="1.0" encoding="utf-8"?>
<!-- Generator: Adobe Illustrator 16.0.0, SVG Export Plug-In . SVG Version: 6.00 Build 0)  -->
<!DOCTYPE svg PUBLIC "-//W3C//DTD SVG 1.1//EN" "http://www.w3.org/Graphics/SVG/1.1/DTD/svg11.dtd">
<svg version="1.1" id="Layer_1" xmlns="http://www.w3.org/2000/svg" xmlns:xlink="http://www.w3.org/1999/xlink" x="0px" y="0px"
	 width="217.007px" height="287.986px" viewBox="0 0 217.007 287.986" enable-background="new 0 0 217.007 287.986"
	 xml:space="preserve">
<g>
	<path fill="none" stroke="#2366C9" stroke-width="10" stroke-linejoin="round" stroke-miterlimit="10" d="M156.918,235.982
		c0,11.046-8.954,20-20,20h-101c-11.046,0-20-8.954-20-20v-162c0-11.046,8.954-20,20-20h101c11.046,0,20,8.954,20,20V235.982z"/>
</g>
<rect x="41.918" y="84.982" fill="none" stroke="#2366C9" stroke-width="10" stroke-linejoin="round" stroke-miterlimit="10" width="87" height="108"/>
<path fill="none" stroke="#2366C9" stroke-width="10" stroke-linejoin="round" stroke-miterlimit="10" d="M113.191,192.982
	l-18.153-40.647c8.388-3.744,14.237-12.103,14.237-21.882c0-13.258-10.75-23.984-24.009-23.984s-24.009,10.762-24.009,24.02
	c0,9.779,5.85,18.098,14.237,21.84l-18.153,40.654H113.191z"/>
<line fill="none" stroke="#2366C9" stroke-width="10" stroke-linecap="round" stroke-linejoin="round" stroke-miterlimit="10" x1="30.989" y1="13.084" x2="54.694" y2="50.422"/>
<line fill="none" stroke="#2366C9" stroke-width="10" stroke-linecap="round" stroke-linejoin="round" stroke-miterlimit="10" x1="54.728" y1="13.084" x2="78.434" y2="50.422"/>
<line fill="none" stroke="#2366C9" stroke-width="10" stroke-linecap="round" stroke-linejoin="round" stroke-miterlimit="10" x1="115.253" y1="13.084" x2="92.913" y2="48.273"/>
<line fill="none" stroke="#2366C9" stroke-width="10" stroke-linecap="round" stroke-linejoin="round" stroke-miterlimit="10" x1="138.991" y1="13.084" x2="115.286" y2="50.422"/>
<polygon fill="#FFFFFF" stroke="#F93535" stroke-width="10" stroke-linejoin="round" stroke-miterlimit="10" points="
	99.828,277.982 150.967,189.404 202.107,277.982 "/>
<line fill="#FFFFFF" stroke="#F93535" stroke-width="10" stroke-linecap="round" stroke-linejoin="round" stroke-miterlimit="10" x1="150.918" y1="218.982" x2="150.918" y2="248.982"/>
<line fill="#FFFFFF" stroke="#F93535" stroke-width="10" stroke-linecap="round" stroke-linejoin="round" stroke-miterlimit="10" x1="150.918" y1="261.982" x2="150.918" y2="262.982"/>
</svg>
