<?xml version="1.0" encoding="utf-8"?>
<!-- Generator: Adobe Illustrator 16.0.0, SVG Export Plug-In . SVG Version: 6.00 Build 0)  -->
<!DOCTYPE svg PUBLIC "-//W3C//DTD SVG 1.1//EN" "http://www.w3.org/Graphics/SVG/1.1/DTD/svg11.dtd">
<svg version="1.1" id="Layer_1" xmlns="http://www.w3.org/2000/svg" xmlns:xlink="http://www.w3.org/1999/xlink" x="0px" y="0px"
	 width="320.984px" height="215.989px" viewBox="0 0 320.984 215.989" enable-background="new 0 0 320.984 215.989"
	 xml:space="preserve">
<g>
	<path fill="none" stroke="#2366C9" stroke-width="10" stroke-linejoin="round" stroke-miterlimit="10" d="M270.863,165.008
		c0,11.046-8.954,20-20,20h-212c-11.046,0-20-8.954-20-20v-133c0-11.046,8.954-20,20-20h212c11.046,0,20,8.954,20,20V165.008z"/>
</g>
<line fill="none" stroke="#2366C9" stroke-width="10" stroke-linejoin="round" stroke-miterlimit="10" x1="18.863" y1="45.008" x2="270.863" y2="45.008"/>
<circle fill="#2366C9" cx="212.471" cy="28.686" r="6.231"/>
<circle fill="#2366C9" cx="231.879" cy="28.686" r="6.231"/>
<circle fill="#2366C9" cx="250.569" cy="28.686" r="6.231"/>
<rect x="42.863" y="65.008" fill="none" stroke="#2366C9" stroke-width="10" stroke-linejoin="round" stroke-miterlimit="10" width="41" height="41"/>
<rect x="104.863" y="73.008" fill="none" stroke="#2366C9" stroke-width="10" stroke-linejoin="round" stroke-miterlimit="10" width="146" height="18"/>
<rect x="42.863" y="125.008" fill="none" stroke="#2366C9" stroke-width="10" stroke-linejoin="round" stroke-miterlimit="10" width="41" height="40"/>
<rect x="104.863" y="135.008" fill="none" stroke="#2366C9" stroke-width="10" stroke-linejoin="round" stroke-miterlimit="10" width="146" height="18"/>
<polyline fill="none" stroke="#2366C9" stroke-width="10" stroke-linecap="round" stroke-linejoin="round" stroke-miterlimit="10" points="
	50.492,85.354 63.791,95.776 84.277,64.866 "/>
<polyline fill="none" stroke="#2366C9" stroke-width="10" stroke-linecap="round" stroke-linejoin="round" stroke-miterlimit="10" points="
	50.492,145.735 63.791,156.158 84.277,125.249 "/>
<polygon fill="#FFFFFF" stroke="#F93535" stroke-width="10" stroke-linejoin="round" stroke-miterlimit="10" points="
	205.898,200.008 256.771,111.892 307.645,200.008 "/>
<line fill="#FFFFFF" stroke="#F93535" stroke-width="10" stroke-linecap="round" stroke-linejoin="round" stroke-miterlimit="10" x1="256.863" y1="141.008" x2="256.863" y2="172.008"/>
<line fill="#FFFFFF" stroke="#F93535" stroke-width="10" stroke-linecap="round" stroke-linejoin="round" stroke-miterlimit="10" x1="256.863" y1="184.008" x2="256.863" y2="186.008"/>
</svg>
