<?xml version="1.0" encoding="utf-8"?>
<!-- Generator: Adobe Illustrator 16.0.0, SVG Export Plug-In . SVG Version: 6.00 Build 0)  -->
<!DOCTYPE svg PUBLIC "-//W3C//DTD SVG 1.1//EN" "http://www.w3.org/Graphics/SVG/1.1/DTD/svg11.dtd">
<svg version="1.1" id="Layer_1" xmlns="http://www.w3.org/2000/svg" xmlns:xlink="http://www.w3.org/1999/xlink" x="0px" y="0px"
	 width="383.98px" height="274.106px" viewBox="0 0 383.98 274.106" enable-background="new 0 0 383.98 274.106"
	 xml:space="preserve">
<g>
	<path fill="none" stroke="#2366C9" stroke-width="10" stroke-linejoin="round" stroke-miterlimit="10" d="M366.938,239
		c0,11-9,20-20,20h-311c-11,0-20-9-20-20V38c0-11,9-20,20-20h311c11,0,20,9,20,20V239z"/>
</g>
<line fill="none" stroke="#2366C9" stroke-width="10" stroke-linejoin="round" stroke-miterlimit="10" x1="15.938" y1="64" x2="366.938" y2="64"/>
<circle fill="#2366C9" cx="285.272" cy="41.667" r="8.668"/>
<circle fill="#2366C9" cx="312.272" cy="41.667" r="8.668"/>
<circle fill="#2366C9" cx="338.272" cy="41.667" r="8.668"/>
<rect x="49.938" y="92" fill="none" stroke="#2366C9" stroke-width="10" stroke-linejoin="round" stroke-miterlimit="10" width="57" height="57"/>
<rect x="134.938" y="103" fill="none" stroke="#2366C9" stroke-width="10" stroke-linejoin="round" stroke-miterlimit="10" width="204" height="25"/>
<rect x="49.938" y="175" fill="none" stroke="#2366C9" stroke-width="10" stroke-linejoin="round" stroke-miterlimit="10" width="57" height="57"/>
<rect x="134.938" y="190" fill="none" stroke="#2366C9" stroke-width="10" stroke-linejoin="round" stroke-miterlimit="10" width="204" height="25"/>
<polyline fill="none" stroke="#2366C9" stroke-width="10" stroke-linecap="round" stroke-linejoin="round" stroke-miterlimit="10" points="
	59.938,120.5 78.438,135 106.938,92 "/>
<polyline fill="none" stroke="#2366C9" stroke-width="10" stroke-linecap="round" stroke-linejoin="round" stroke-miterlimit="10" points="
	59.938,204.5 78.438,219 106.938,176 "/>
</svg>
