<?xml version="1.0" encoding="utf-8"?>
<!-- Generator: Adobe Illustrator 16.0.0, SVG Export Plug-In . SVG Version: 6.00 Build 0)  -->
<!DOCTYPE svg PUBLIC "-//W3C//DTD SVG 1.1//EN" "http://www.w3.org/Graphics/SVG/1.1/DTD/svg11.dtd">
<svg version="1.1" id="Layer_1" xmlns="http://www.w3.org/2000/svg" xmlns:xlink="http://www.w3.org/1999/xlink" x="0px" y="0px"
	 width="245.858px" height="385.48px" viewBox="0 0 245.858 385.48" enable-background="new 0 0 245.858 385.48"
	 xml:space="preserve">
<g>
	<path fill="none" stroke="#2366C9" stroke-width="10" stroke-linejoin="round" stroke-miterlimit="10" d="M230.891,350.402
		c0,11.046-8.954,20-20,20h-175c-11.046,0-20-8.954-20-20v-258c0-11.046,8.954-20,20-20h175c11.046,0,20,8.954,20,20V350.402z"/>
</g>
<rect x="63.891" y="123.402" fill="none" stroke="#2366C9" stroke-width="10" stroke-linejoin="round" stroke-miterlimit="10" width="120" height="151"/>
<line fill="none" stroke="#2366C9" stroke-width="10" stroke-linecap="round" stroke-linejoin="round" stroke-miterlimit="10" x1="63.891" y1="319.402" x2="183.891" y2="319.402"/>
<path fill="none" stroke="#2366C9" stroke-width="10" stroke-linejoin="round" stroke-miterlimit="10" d="M162.881,274.402
	l-25.133-56.618c11.612-5.182,19.71-16.927,19.71-30.465c0-18.356-14.881-33.291-33.237-33.291
	c-18.357,0-33.238,14.854-33.238,33.21c0,13.538,8.098,25.376,19.709,30.559L85.56,274.402H162.881z"/>
<line fill="none" stroke="#2366C9" stroke-width="10" stroke-linecap="round" stroke-linejoin="round" stroke-miterlimit="10" x1="49.078" y1="20.504" x2="81.896" y2="72.197"/>
<line fill="none" stroke="#2366C9" stroke-width="10" stroke-linecap="round" stroke-linejoin="round" stroke-miterlimit="10" x1="81.942" y1="20.504" x2="114.76" y2="72.197"/>
<line fill="none" stroke="#2366C9" stroke-width="10" stroke-linecap="round" stroke-linejoin="round" stroke-miterlimit="10" x1="165.735" y1="20.504" x2="134.807" y2="69.22"/>
<line fill="none" stroke="#2366C9" stroke-width="10" stroke-linecap="round" stroke-linejoin="round" stroke-miterlimit="10" x1="198.599" y1="20.504" x2="165.781" y2="72.197"/>
</svg>
