<?xml version="1.0" encoding="utf-8"?>
<!-- Generator: Adobe Illustrator 16.0.0, SVG Export Plug-In . SVG Version: 6.00 Build 0)  -->
<!DOCTYPE svg PUBLIC "-//W3C//DTD SVG 1.1//EN" "http://www.w3.org/Graphics/SVG/1.1/DTD/svg11.dtd">
<svg version="1.1" id="Layer_1" xmlns="http://www.w3.org/2000/svg" xmlns:xlink="http://www.w3.org/1999/xlink" x="0px" y="0px"
	 width="278.318px" height="193.534px" viewBox="0 0 278.318 193.534" enable-background="new 0 0 278.318 193.534"
	 xml:space="preserve">
<g>
	<path fill="none" stroke="#2366C9" stroke-width="10" stroke-linejoin="round" stroke-miterlimit="10" d="M268.723,162.553
		c0,11.046-8.954,20-20,20h-212c-11.046,0-20-8.954-20-20v-133c0-11.046,8.954-20,20-20h212c11.046,0,20,8.954,20,20V162.553z"/>
</g>
<line fill="none" stroke="#2366C9" stroke-width="10" stroke-linejoin="round" stroke-miterlimit="10" x1="16.723" y1="42.553" x2="268.723" y2="42.553"/>
<circle fill="#2366C9" cx="210.33" cy="26.23" r="6.23"/>
<circle fill="#2366C9" cx="229.739" cy="26.23" r="6.231"/>
<circle fill="#2366C9" cx="248.429" cy="26.23" r="6.231"/>
<rect x="40.723" y="62.553" fill="none" stroke="#2366C9" stroke-width="10" stroke-linejoin="round" stroke-miterlimit="10" width="41" height="41"/>
<rect x="102.723" y="70.553" fill="none" stroke="#2366C9" stroke-width="10" stroke-linejoin="round" stroke-miterlimit="10" width="146" height="18"/>
<rect x="40.723" y="122.553" fill="none" stroke="#2366C9" stroke-width="10" stroke-linejoin="round" stroke-miterlimit="10" width="41" height="40"/>
<rect x="102.723" y="132.553" fill="none" stroke="#2366C9" stroke-width="10" stroke-linejoin="round" stroke-miterlimit="10" width="146" height="18"/>
<polyline fill="none" stroke="#2366C9" stroke-width="10" stroke-linecap="round" stroke-linejoin="round" stroke-miterlimit="10" points="
	48.352,82.898 61.65,93.321 82.137,62.411 "/>
<polyline fill="none" stroke="#2366C9" stroke-width="10" stroke-linecap="round" stroke-linejoin="round" stroke-miterlimit="10" points="
	48.352,143.28 61.65,153.703 82.137,122.794 "/>
</svg>
