<?xml version="1.0" encoding="utf-8"?>
<!-- Generator: Adobe Illustrator 16.0.0, SVG Export Plug-In . SVG Version: 6.00 Build 0)  -->
<!DOCTYPE svg PUBLIC "-//W3C//DTD SVG 1.1//EN" "http://www.w3.org/Graphics/SVG/1.1/DTD/svg11.dtd">
<svg version="1.1" id="Layer_1" xmlns="http://www.w3.org/2000/svg" xmlns:xlink="http://www.w3.org/1999/xlink" x="0px" y="0px"
	 width="209.866px" height="285.403px" viewBox="0 0 209.866 285.403" enable-background="new 0 0 209.866 285.403"
	 xml:space="preserve">
<rect x="73.271" y="51.689" transform="matrix(0.8431 -0.5377 0.5377 0.8431 -65.6476 77.9257)" fill="none" stroke="#2366C9" stroke-width="10" stroke-linecap="round" stroke-linejoin="round" stroke-miterlimit="10" width="54.921" height="199.571"/>
<polygon fill="none" stroke="#2366C9" stroke-width="10" stroke-linecap="round" stroke-linejoin="round" stroke-miterlimit="10" points="
	24.162,81.957 15.949,18.387 70.125,52.645 "/>
<polygon fill="none" stroke="#2366C9" stroke-width="10" stroke-linecap="round" stroke-linejoin="round" stroke-miterlimit="10" points="
	20.507,39.607 17.985,20.093 34.617,30.609 "/>
<line fill="none" stroke="#2366C9" stroke-width="10" stroke-linecap="round" stroke-linejoin="round" stroke-miterlimit="10" x1="44.991" y1="68.258" x2="136.495" y2="211.739"/>
<line fill="none" stroke="#2366C9" stroke-width="10" stroke-linecap="round" stroke-linejoin="round" stroke-miterlimit="10" x1="115.428" y1="225.59" x2="161.733" y2="196.059"/>
<path fill="none" stroke="#2366C9" stroke-width="10" stroke-linecap="round" stroke-linejoin="round" stroke-miterlimit="10" d="
	M192.444,244.215c0.726,1.139,0.439,2.621-0.642,3.31l-42.392,27.036c-1.081,0.688-2.546,0.323-3.272-0.815l-13.591-21.311
	c-0.726-1.139-0.439-2.621,0.642-3.31l42.392-27.035c1.081-0.689,2.545-0.324,3.272,0.814L192.444,244.215z"/>
</svg>
