<?xml version="1.0" encoding="utf-8"?>
<!-- Generator: Adobe Illustrator 16.0.0, SVG Export Plug-In . SVG Version: 6.00 Build 0)  -->
<!DOCTYPE svg PUBLIC "-//W3C//DTD SVG 1.1//EN" "http://www.w3.org/Graphics/SVG/1.1/DTD/svg11.dtd">
<svg version="1.1" id="Layer_1" xmlns="http://www.w3.org/2000/svg" xmlns:xlink="http://www.w3.org/1999/xlink" x="0px" y="0px"
	 width="377.981px" height="271px" viewBox="0 0 377.981 271" enable-background="new 0 0 377.981 271" xml:space="preserve">
<g>
	<path fill="none" stroke="#2366C9" stroke-width="10" stroke-linejoin="round" stroke-miterlimit="10" d="M365.362,235
		c0,11-9,20-20,20h-311c-11,0-20-9-20-20V34c0-11,9-20,20-20h311c11,0,20,9,20,20V235z"/>
</g>
<line fill="none" stroke="#2366C9" stroke-width="10" stroke-linejoin="round" stroke-miterlimit="10" x1="14.362" y1="66" x2="365.362" y2="66"/>
<circle fill="#2366C9" cx="283.696" cy="39.667" r="8.667"/>
<circle fill="#2366C9" cx="310.696" cy="39.667" r="8.667"/>
<circle fill="#2366C9" cx="336.696" cy="39.667" r="8.667"/>
<polygon fill="none" stroke="#2366C9" stroke-width="10" stroke-linecap="round" stroke-linejoin="round" stroke-miterlimit="10" points="
	322.664,149.534 199.528,98.263 229.084,228.831 256.517,188.996 290.502,229.103 311.354,211.434 277.225,171.158 "/>
</svg>
